<?xml version="1.0" encoding="UTF-8"?>
<svg xmlns="http://www.w3.org/2000/svg" xmlns:xlink="http://www.w3.org/1999/xlink" width="20pt" height="20pt" viewBox="0 0 20 20" version="1.1">
<g id="surface1">
<path style=" stroke:none;fill-rule:nonzero;fill:rgb(0%,60.784314%,22.745098%);fill-opacity:1;" d="M 20 14.902344 C 20 16 19.128906 16.871094 18.066406 16.871094 L 1.933594 16.871094 C 0.871094 16.871094 0 16 0 14.902344 L 0 5.097656 C 0 4 0.871094 3.128906 1.933594 3.128906 L 18.066406 3.128906 C 19.128906 3.128906 20 4 20 5.097656 Z M 20 14.902344 "/>
<path style=" stroke:none;fill-rule:nonzero;fill:rgb(0%,48.627451%,16.078431%);fill-opacity:1;" d="M 1.933594 3.128906 L 18.066406 3.128906 C 19.128906 3.128906 20 4 20 5.097656 L 20 14.902344 C 20 16 19.128906 16.871094 18.066406 16.871094 "/>
<path style=" stroke:none;fill-rule:nonzero;fill:rgb(0%,42.745098%,12.941176%);fill-opacity:1;" d="M 1.933594 3.128906 L 18.066406 3.128906 C 19.128906 3.128906 20 4 20 5.097656 L 20 8.675781 "/>
<path style=" stroke:none;fill-rule:nonzero;fill:rgb(0%,42.745098%,12.941176%);fill-opacity:1;" d="M 20 14.902344 C 20 16 19.128906 16.871094 18.066406 16.871094 L 1.933594 16.871094 C 0.871094 16.871094 0 16 0 14.902344 "/>
<path style=" stroke:none;fill-rule:nonzero;fill:rgb(99.607843%,87.45098%,0%);fill-opacity:1;" d="M 1.226562 10 L 10 15.613281 L 18.773438 10 L 10 4.386719 Z M 1.226562 10 "/>
<path style=" stroke:none;fill-rule:nonzero;fill:rgb(98.823529%,75.294118%,0%);fill-opacity:1;" d="M 10 15.613281 L 11.097656 14.902344 L 8.902344 14.902344 Z M 10 15.613281 "/>
<path style=" stroke:none;fill-rule:nonzero;fill:rgb(98.823529%,75.294118%,0%);fill-opacity:1;" d="M 6.226562 6.804688 L 13.773438 13.195312 L 18.773438 10 L 10 4.386719 Z M 6.226562 6.804688 "/>
<path style=" stroke:none;fill-rule:nonzero;fill:rgb(0%,15.294118%,46.27451%);fill-opacity:1;" d="M 13.710938 10 C 13.710938 12.046875 12.046875 13.710938 10 13.710938 C 7.953125 13.710938 6.289062 12.046875 6.289062 10 C 6.289062 7.953125 7.953125 6.289062 10 6.289062 C 12.046875 6.289062 13.710938 7.953125 13.710938 10 Z M 13.710938 10 "/>
<path style=" stroke:none;fill-rule:nonzero;fill:rgb(0.784314%,11.764706%,27.843137%);fill-opacity:1;" d="M 10 6.289062 C 8.871094 6.289062 7.871094 6.804688 7.195312 7.582031 L 12.839844 12.386719 C 13.386719 11.742188 13.710938 10.902344 13.710938 10 C 13.710938 7.96875 12.03125 6.289062 10 6.289062 Z M 10 6.289062 "/>
<path style=" stroke:none;fill-rule:nonzero;fill:rgb(100%,100%,100%);fill-opacity:1;" d="M 6.601562 8.515625 C 6.519531 8.699219 6.453125 8.894531 6.402344 9.09375 C 6.898438 9.007812 7.410156 8.964844 7.933594 8.96875 C 10.089844 8.96875 12.054688 9.769531 13.546875 11.09375 C 13.601562 10.90625 13.644531 10.714844 13.675781 10.515625 C 12.109375 9.207031 10.097656 8.417969 7.902344 8.417969 C 7.460938 8.417969 7.027344 8.453125 6.601562 8.515625 Z M 6.601562 8.515625 "/>
</g>
</svg>
