<?xml version="1.0" encoding="UTF-8"?>
<svg xmlns="http://www.w3.org/2000/svg" xmlns:xlink="http://www.w3.org/1999/xlink" width="10pt" height="10pt" viewBox="0 0 10 10" version="1.1">
<g id="surface1">
<path style=" stroke:none;fill-rule:nonzero;fill:rgb(90.196078%,90.196078%,90.196078%);fill-opacity:1;" d="M 8.578125 4.605469 C 8.535156 4.566406 8.480469 4.542969 8.421875 4.542969 C 8.414062 4.542969 8.414062 4.542969 8.414062 4.542969 L 8.113281 4.542969 L 8.113281 2.898438 C 8.113281 1.300781 6.8125 0 5.214844 0 C 3.621094 0 2.320312 1.300781 2.320312 2.898438 L 2.320312 2.953125 C 2.320312 3.074219 2.425781 3.175781 2.539062 3.175781 L 3.320312 3.175781 C 3.441406 3.175781 3.546875 3.074219 3.546875 2.953125 L 3.546875 2.898438 C 3.546875 1.96875 4.296875 1.222656 5.214844 1.222656 C 6.136719 1.222656 6.886719 1.96875 6.886719 2.898438 L 6.886719 4.542969 L 1.945312 4.542969 C 1.886719 4.542969 1.832031 4.574219 1.789062 4.605469 C 1.742188 4.65625 1.726562 4.710938 1.726562 4.769531 L 1.726562 10.140625 C 1.726562 10.269531 1.824219 10.367188 1.953125 10.367188 L 8.421875 10.367188 C 8.542969 10.367188 8.644531 10.261719 8.644531 10.140625 L 8.644531 4.769531 C 8.644531 4.703125 8.617188 4.648438 8.578125 4.605469 Z M 8.578125 4.605469 "/>
</g>
</svg>
