<?xml version="1.0" encoding="UTF-8"?>
<svg xmlns="http://www.w3.org/2000/svg" xmlns:xlink="http://www.w3.org/1999/xlink" width="10pt" height="10pt" viewBox="0 0 10 10" version="1.1">
<g id="surface1">
<path style=" stroke:none;fill-rule:nonzero;fill:rgb(90.196078%,90.196078%,90.196078%);fill-opacity:1;" d="M 10.222656 3.253906 C 10.222656 2.816406 10.140625 2.394531 9.96875 1.984375 C 9.796875 1.601562 9.570312 1.253906 9.269531 0.953125 C 8.96875 0.652344 8.625 0.421875 8.234375 0.261719 C 7.828125 0.0820312 7.40625 0 6.964844 0 C 6.527344 0 6.09375 0.0820312 5.695312 0.261719 C 5.304688 0.421875 4.957031 0.652344 4.65625 0.953125 C 4.363281 1.253906 4.125 1.601562 3.957031 1.984375 C 3.792969 2.394531 3.703125 2.816406 3.703125 3.253906 C 3.703125 3.808594 3.839844 4.347656 4.101562 4.824219 L 0.203125 8.722656 C 0.113281 8.820312 0.0820312 8.953125 0.136719 9.082031 C 0.148438 9.113281 0.171875 9.128906 0.195312 9.15625 L 1.066406 10.027344 C 1.089844 10.050781 1.105469 10.066406 1.140625 10.082031 C 1.269531 10.140625 1.398438 10.105469 1.496094 10.019531 L 2.035156 9.472656 L 2.816406 10.253906 C 2.832031 10.277344 2.855469 10.292969 2.878906 10.300781 C 3.011719 10.359375 3.15625 10.335938 3.238281 10.238281 L 4.101562 9.382812 C 4.125 9.359375 4.140625 9.335938 4.152344 9.308594 C 4.214844 9.179688 4.183594 9.042969 4.09375 8.953125 L 3.328125 8.1875 L 5.394531 6.121094 C 5.875 6.378906 6.414062 6.519531 6.964844 6.519531 C 7.40625 6.519531 7.828125 6.429688 8.234375 6.265625 C 8.617188 6.105469 8.96875 5.859375 9.269531 5.566406 C 9.570312 5.265625 9.796875 4.914062 9.960938 4.523438 C 10.140625 4.125 10.222656 3.695312 10.222656 3.253906 Z M 8.105469 4.402344 C 7.796875 4.703125 7.390625 4.875 6.964844 4.875 C 6.527344 4.875 6.121094 4.703125 5.820312 4.402344 C 5.519531 4.101562 5.347656 3.695312 5.347656 3.253906 C 5.347656 2.832031 5.519531 2.425781 5.820312 2.117188 C 6.121094 1.808594 6.527344 1.644531 6.964844 1.644531 C 7.390625 1.644531 7.796875 1.808594 8.105469 2.117188 C 8.414062 2.425781 8.578125 2.832031 8.578125 3.253906 C 8.578125 3.695312 8.414062 4.101562 8.105469 4.402344 Z M 8.105469 4.402344 "/>
</g>
</svg>
