<?xml version="1.0" encoding="UTF-8"?>
<svg xmlns="http://www.w3.org/2000/svg" xmlns:xlink="http://www.w3.org/1999/xlink" width="10pt" height="10pt" viewBox="0 0 10 10" version="1.1">
<g id="surface1">
<path style=" stroke:none;fill-rule:nonzero;fill:rgb(90.196078%,90.196078%,90.196078%);fill-opacity:1;" d="M 9.511719 1.464844 C 8.976562 0.878906 8.242188 0.570312 7.445312 0.570312 C 6.851562 0.570312 6.300781 0.75 5.828125 1.121094 C 5.582031 1.316406 5.355469 1.546875 5.167969 1.808594 C 4.972656 1.546875 4.753906 1.316406 4.507812 1.121094 C 4.027344 0.75 3.484375 0.570312 2.890625 0.570312 C 2.082031 0.570312 1.351562 0.878906 0.820312 1.464844 C 0.292969 2.035156 0 2.816406 0 3.671875 C 0 4.542969 0.324219 5.347656 1.027344 6.183594 C 1.652344 6.941406 2.546875 7.707031 3.589844 8.59375 C 3.945312 8.902344 4.347656 9.246094 4.769531 9.601562 C 4.882812 9.699219 5.019531 9.757812 5.167969 9.757812 C 5.3125 9.757812 5.453125 9.699219 5.566406 9.601562 C 5.988281 9.246094 6.386719 8.902344 6.738281 8.59375 C 7.78125 7.707031 8.683594 6.941406 9.308594 6.183594 C 10.011719 5.347656 10.335938 4.542969 10.335938 3.671875 C 10.335938 2.816406 10.042969 2.035156 9.511719 1.464844 Z M 9.511719 1.464844 "/>
</g>
</svg>
