<?xml version="1.0" encoding="UTF-8"?>
<svg xmlns="http://www.w3.org/2000/svg" xmlns:xlink="http://www.w3.org/1999/xlink" width="15pt" height="15pt" viewBox="0 0 15 15" version="1.1">
<g id="surface1">
<path style=" stroke:none;fill-rule:nonzero;fill:rgb(100%,100%,100%);fill-opacity:1;" d="M 10.097656 1.730469 C 7.789062 -0.578125 4.035156 -0.578125 1.730469 1.730469 C -0.574219 4.035156 -0.574219 7.789062 1.730469 10.097656 C 3.785156 12.152344 6.984375 12.371094 9.289062 10.765625 C 9.335938 10.996094 9.449219 11.214844 9.625 11.394531 L 12.984375 14.753906 C 13.472656 15.242188 14.265625 15.242188 14.753906 14.753906 C 15.242188 14.265625 15.242188 13.472656 14.753906 12.984375 L 11.394531 9.625 C 11.214844 9.449219 10.996094 9.335938 10.765625 9.289062 C 12.371094 6.984375 12.152344 3.785156 10.097656 1.730469 Z M 9.035156 9.035156 C 7.316406 10.757812 4.511719 10.757812 2.789062 9.035156 C 1.070312 7.316406 1.070312 4.511719 2.789062 2.789062 C 4.511719 1.070312 7.316406 1.070312 9.035156 2.789062 C 10.757812 4.511719 10.757812 7.316406 9.035156 9.035156 Z M 9.035156 9.035156 "/>
</g>
</svg>
